<mxfile host="app.diagrams.net" agent="Mozilla/5.0 (Windows NT 10.0; Win64; x64; rv:128.0) Gecko/20100101 Firefox/128.0" version="26.1.1">
  <diagram id="prtHgNgQTEPvFCAcTncT" name="Page-1">
    <mxGraphModel dx="1434" dy="754" grid="1" gridSize="10" guides="1" tooltips="1" connect="1" arrows="1" fold="1" page="1" pageScale="1" pageWidth="827" pageHeight="1169" math="0" shadow="0">
      <root>
        <mxCell id="0" />
        <mxCell id="1" parent="0" />
        <mxCell id="dNxyNK7c78bLwvsdeMH5-13" value="" style="endArrow=blockThin;endFill=1;fontSize=11;edgeStyle=elbowEdgeStyle;elbow=vertical;rounded=0;exitX=0.5;exitY=1;exitDx=0;exitDy=0;entryX=0.5;entryY=0;entryDx=0;entryDy=0;" parent="1" source="SoV-wvT64MSl2KkIK8ap-3" target="SoV-wvT64MSl2KkIK8ap-6" edge="1">
          <mxGeometry relative="1" as="geometry">
            <mxPoint x="390" y="250" as="sourcePoint" />
            <mxPoint x="160" y="300" as="targetPoint" />
          </mxGeometry>
        </mxCell>
        <mxCell id="SoV-wvT64MSl2KkIK8ap-9" value="是管理" style="edgeLabel;html=1;align=center;verticalAlign=middle;resizable=0;points=[];fontFamily=宋体;fontSize=12;" vertex="1" connectable="0" parent="dNxyNK7c78bLwvsdeMH5-13">
          <mxGeometry x="-0.6653" relative="1" as="geometry">
            <mxPoint x="-27" as="offset" />
          </mxGeometry>
        </mxCell>
        <mxCell id="dNxyNK7c78bLwvsdeMH5-17" value="" style="endArrow=blockThin;endFill=1;fontSize=11;edgeStyle=elbowEdgeStyle;elbow=vertical;rounded=0;exitX=0.5;exitY=1;exitDx=0;exitDy=0;entryX=0.5;entryY=0;entryDx=0;entryDy=0;" parent="1" source="SoV-wvT64MSl2KkIK8ap-3" target="SoV-wvT64MSl2KkIK8ap-7" edge="1">
          <mxGeometry relative="1" as="geometry">
            <mxPoint x="410" y="270" as="sourcePoint" />
            <mxPoint x="630" y="300" as="targetPoint" />
          </mxGeometry>
        </mxCell>
        <mxCell id="SoV-wvT64MSl2KkIK8ap-10" value="非管理" style="edgeLabel;html=1;align=center;verticalAlign=middle;resizable=0;points=[];fontFamily=宋体;fontSize=12;" vertex="1" connectable="0" parent="dNxyNK7c78bLwvsdeMH5-17">
          <mxGeometry x="-0.6906" y="-1" relative="1" as="geometry">
            <mxPoint x="29" y="-1" as="offset" />
          </mxGeometry>
        </mxCell>
        <mxCell id="SoV-wvT64MSl2KkIK8ap-5" style="edgeStyle=orthogonalEdgeStyle;rounded=0;orthogonalLoop=1;jettySize=auto;html=1;entryX=0.5;entryY=0;entryDx=0;entryDy=0;" edge="1" parent="1" source="SoV-wvT64MSl2KkIK8ap-1" target="SoV-wvT64MSl2KkIK8ap-3">
          <mxGeometry relative="1" as="geometry" />
        </mxCell>
        <mxCell id="SoV-wvT64MSl2KkIK8ap-1" value="&lt;font style=&quot;font-size: 16px;&quot; face=&quot;宋体&quot;&gt;用户注册&lt;/font&gt;" style="rounded=0;whiteSpace=wrap;html=1;" vertex="1" parent="1">
          <mxGeometry x="430" y="70" width="120" height="60" as="geometry" />
        </mxCell>
        <mxCell id="SoV-wvT64MSl2KkIK8ap-4" style="edgeStyle=orthogonalEdgeStyle;rounded=0;orthogonalLoop=1;jettySize=auto;html=1;" edge="1" parent="1" source="SoV-wvT64MSl2KkIK8ap-2" target="SoV-wvT64MSl2KkIK8ap-3">
          <mxGeometry relative="1" as="geometry" />
        </mxCell>
        <mxCell id="SoV-wvT64MSl2KkIK8ap-2" value="&lt;font style=&quot;font-size: 16px;&quot; face=&quot;宋体&quot;&gt;创建超级管理&lt;/font&gt;" style="rounded=0;whiteSpace=wrap;html=1;" vertex="1" parent="1">
          <mxGeometry x="250" y="70" width="120" height="60" as="geometry" />
        </mxCell>
        <mxCell id="SoV-wvT64MSl2KkIK8ap-3" value="&lt;font style=&quot;font-size: 16px;&quot; face=&quot;宋体&quot;&gt;登录&lt;/font&gt;" style="rounded=0;whiteSpace=wrap;html=1;" vertex="1" parent="1">
          <mxGeometry x="340" y="180" width="120" height="60" as="geometry" />
        </mxCell>
        <mxCell id="SoV-wvT64MSl2KkIK8ap-19" style="edgeStyle=orthogonalEdgeStyle;rounded=0;orthogonalLoop=1;jettySize=auto;html=1;exitX=0.5;exitY=1;exitDx=0;exitDy=0;entryX=0.5;entryY=0;entryDx=0;entryDy=0;" edge="1" parent="1" source="SoV-wvT64MSl2KkIK8ap-6" target="SoV-wvT64MSl2KkIK8ap-17">
          <mxGeometry relative="1" as="geometry" />
        </mxCell>
        <mxCell id="SoV-wvT64MSl2KkIK8ap-20" style="edgeStyle=orthogonalEdgeStyle;rounded=0;orthogonalLoop=1;jettySize=auto;html=1;exitX=0.5;exitY=1;exitDx=0;exitDy=0;entryX=0.5;entryY=0;entryDx=0;entryDy=0;" edge="1" parent="1" source="SoV-wvT64MSl2KkIK8ap-6" target="SoV-wvT64MSl2KkIK8ap-18">
          <mxGeometry relative="1" as="geometry" />
        </mxCell>
        <mxCell id="SoV-wvT64MSl2KkIK8ap-28" style="edgeStyle=orthogonalEdgeStyle;rounded=0;orthogonalLoop=1;jettySize=auto;html=1;exitX=0.5;exitY=1;exitDx=0;exitDy=0;endArrow=none;startFill=0;" edge="1" parent="1" source="SoV-wvT64MSl2KkIK8ap-6">
          <mxGeometry relative="1" as="geometry">
            <mxPoint x="480" y="400" as="targetPoint" />
            <Array as="points">
              <mxPoint x="260" y="370" />
              <mxPoint x="480" y="370" />
            </Array>
          </mxGeometry>
        </mxCell>
        <mxCell id="SoV-wvT64MSl2KkIK8ap-29" value="&lt;font style=&quot;font-size: 12px;&quot; face=&quot;宋体&quot;&gt;有权限查看&lt;/font&gt;" style="edgeLabel;html=1;align=center;verticalAlign=middle;resizable=0;points=[];" vertex="1" connectable="0" parent="SoV-wvT64MSl2KkIK8ap-28">
          <mxGeometry x="0.0516" y="2" relative="1" as="geometry">
            <mxPoint as="offset" />
          </mxGeometry>
        </mxCell>
        <mxCell id="SoV-wvT64MSl2KkIK8ap-6" value="&lt;font style=&quot;font-size: 16px;&quot; face=&quot;宋体&quot;&gt;管理员端&lt;/font&gt;" style="rounded=0;whiteSpace=wrap;html=1;" vertex="1" parent="1">
          <mxGeometry x="200" y="300" width="120" height="60" as="geometry" />
        </mxCell>
        <mxCell id="SoV-wvT64MSl2KkIK8ap-21" style="edgeStyle=orthogonalEdgeStyle;rounded=0;orthogonalLoop=1;jettySize=auto;html=1;exitX=0.5;exitY=1;exitDx=0;exitDy=0;entryX=0.5;entryY=0;entryDx=0;entryDy=0;" edge="1" parent="1" source="SoV-wvT64MSl2KkIK8ap-7" target="SoV-wvT64MSl2KkIK8ap-11">
          <mxGeometry relative="1" as="geometry" />
        </mxCell>
        <mxCell id="SoV-wvT64MSl2KkIK8ap-22" style="edgeStyle=orthogonalEdgeStyle;rounded=0;orthogonalLoop=1;jettySize=auto;html=1;exitX=0.5;exitY=1;exitDx=0;exitDy=0;" edge="1" parent="1" source="SoV-wvT64MSl2KkIK8ap-7" target="SoV-wvT64MSl2KkIK8ap-12">
          <mxGeometry relative="1" as="geometry" />
        </mxCell>
        <mxCell id="SoV-wvT64MSl2KkIK8ap-23" style="edgeStyle=orthogonalEdgeStyle;rounded=0;orthogonalLoop=1;jettySize=auto;html=1;exitX=0.5;exitY=1;exitDx=0;exitDy=0;entryX=0.5;entryY=0;entryDx=0;entryDy=0;" edge="1" parent="1" source="SoV-wvT64MSl2KkIK8ap-7" target="SoV-wvT64MSl2KkIK8ap-13">
          <mxGeometry relative="1" as="geometry" />
        </mxCell>
        <mxCell id="SoV-wvT64MSl2KkIK8ap-24" style="edgeStyle=orthogonalEdgeStyle;rounded=0;orthogonalLoop=1;jettySize=auto;html=1;exitX=0.5;exitY=1;exitDx=0;exitDy=0;entryX=0.5;entryY=0;entryDx=0;entryDy=0;" edge="1" parent="1" source="SoV-wvT64MSl2KkIK8ap-7" target="SoV-wvT64MSl2KkIK8ap-14">
          <mxGeometry relative="1" as="geometry" />
        </mxCell>
        <mxCell id="SoV-wvT64MSl2KkIK8ap-25" style="edgeStyle=orthogonalEdgeStyle;rounded=0;orthogonalLoop=1;jettySize=auto;html=1;exitX=0.5;exitY=1;exitDx=0;exitDy=0;entryX=0.5;entryY=0;entryDx=0;entryDy=0;" edge="1" parent="1" source="SoV-wvT64MSl2KkIK8ap-7" target="SoV-wvT64MSl2KkIK8ap-15">
          <mxGeometry relative="1" as="geometry" />
        </mxCell>
        <mxCell id="SoV-wvT64MSl2KkIK8ap-26" style="edgeStyle=orthogonalEdgeStyle;rounded=0;orthogonalLoop=1;jettySize=auto;html=1;exitX=0.5;exitY=1;exitDx=0;exitDy=0;entryX=0.5;entryY=0;entryDx=0;entryDy=0;" edge="1" parent="1" source="SoV-wvT64MSl2KkIK8ap-7" target="SoV-wvT64MSl2KkIK8ap-16">
          <mxGeometry relative="1" as="geometry" />
        </mxCell>
        <mxCell id="SoV-wvT64MSl2KkIK8ap-7" value="&lt;font style=&quot;font-size: 16px;&quot; face=&quot;宋体&quot;&gt;用户端&lt;/font&gt;" style="rounded=0;whiteSpace=wrap;html=1;" vertex="1" parent="1">
          <mxGeometry x="480" y="300" width="120" height="60" as="geometry" />
        </mxCell>
        <mxCell id="SoV-wvT64MSl2KkIK8ap-11" value="&lt;div&gt;&lt;font face=&quot;宋体&quot; style=&quot;font-size: 16px;&quot;&gt;主&lt;/font&gt;&lt;/div&gt;&lt;div&gt;&lt;font face=&quot;宋体&quot; style=&quot;font-size: 16px;&quot;&gt;页&lt;/font&gt;&lt;/div&gt;" style="rounded=0;whiteSpace=wrap;html=1;" vertex="1" parent="1">
          <mxGeometry x="400" y="440" width="30" height="140" as="geometry" />
        </mxCell>
        <mxCell id="SoV-wvT64MSl2KkIK8ap-12" value="&lt;div&gt;&lt;font face=&quot;宋体&quot; style=&quot;font-size: 16px;&quot;&gt;图表仪表盘&lt;/font&gt;&lt;/div&gt;" style="rounded=0;whiteSpace=wrap;html=1;" vertex="1" parent="1">
          <mxGeometry x="450" y="440" width="30" height="140" as="geometry" />
        </mxCell>
        <mxCell id="SoV-wvT64MSl2KkIK8ap-13" value="&lt;div&gt;&lt;font face=&quot;宋体&quot; style=&quot;font-size: 16px;&quot;&gt;数据可视化&lt;/font&gt;&lt;/div&gt;" style="rounded=0;whiteSpace=wrap;html=1;" vertex="1" parent="1">
          <mxGeometry x="500" y="440" width="30" height="140" as="geometry" />
        </mxCell>
        <mxCell id="SoV-wvT64MSl2KkIK8ap-14" value="&lt;font face=&quot;宋体&quot;&gt;&lt;/font&gt;&lt;div&gt;&lt;font face=&quot;宋体&quot; style=&quot;font-size: 16px;&quot;&gt;预测页&lt;/font&gt;&lt;/div&gt;" style="rounded=0;whiteSpace=wrap;html=1;" vertex="1" parent="1">
          <mxGeometry x="550" y="440" width="30" height="140" as="geometry" />
        </mxCell>
        <mxCell id="SoV-wvT64MSl2KkIK8ap-15" value="&lt;div&gt;&lt;font face=&quot;宋体&quot; style=&quot;font-size: 16px;&quot;&gt;个人信息页&lt;/font&gt;&lt;/div&gt;" style="rounded=0;whiteSpace=wrap;html=1;" vertex="1" parent="1">
          <mxGeometry x="600" y="440" width="30" height="140" as="geometry" />
        </mxCell>
        <mxCell id="SoV-wvT64MSl2KkIK8ap-16" value="&lt;div&gt;&lt;font face=&quot;宋体&quot; style=&quot;font-size: 16px;&quot;&gt;数据查看&lt;/font&gt;&lt;/div&gt;" style="rounded=0;whiteSpace=wrap;html=1;" vertex="1" parent="1">
          <mxGeometry x="650" y="440" width="30" height="140" as="geometry" />
        </mxCell>
        <mxCell id="SoV-wvT64MSl2KkIK8ap-17" value="&lt;div&gt;&lt;font face=&quot;宋体&quot; style=&quot;font-size: 16px;&quot;&gt;用户管理&lt;/font&gt;&lt;/div&gt;" style="rounded=0;whiteSpace=wrap;html=1;" vertex="1" parent="1">
          <mxGeometry x="200" y="400" width="30" height="140" as="geometry" />
        </mxCell>
        <mxCell id="SoV-wvT64MSl2KkIK8ap-18" value="&lt;div&gt;&lt;font face=&quot;宋体&quot; style=&quot;font-size: 16px;&quot;&gt;权限管理&lt;/font&gt;&lt;/div&gt;" style="rounded=0;whiteSpace=wrap;html=1;" vertex="1" parent="1">
          <mxGeometry x="290" y="400" width="30" height="140" as="geometry" />
        </mxCell>
      </root>
    </mxGraphModel>
  </diagram>
</mxfile>
